<svg xmlns="http://www.w3.org/2000/svg" width="1200" height="630" viewBox="0 0 1200 630">
  <defs>
    <linearGradient id="bg" x1="0%" y1="0%" x2="100%" y2="100%">
      <stop offset="0%" style="stop-color:#2d5016"/>
      <stop offset="100%" style="stop-color:#1a3a0a"/>
    </linearGradient>
  </defs>
  <rect width="1200" height="630" fill="url(#bg)"/>
  <!-- Mountain silhouette -->
  <polygon points="0,500 200,280 350,380 500,220 650,350 800,200 950,320 1100,250 1200,350 1200,500" fill="#1a3a0a" opacity="0.4"/>
  <polygon points="0,530 150,350 300,420 500,300 700,400 900,280 1050,380 1200,300 1200,530" fill="#1a3a0a" opacity="0.3"/>
  <!-- Paw prints scattered -->
  <g fill="#ffffff" opacity="0.08" transform="translate(100,80) scale(0.8)">
    <ellipse cx="20" cy="0" rx="12" ry="14"/><ellipse cx="45" cy="5" rx="10" ry="12"/><ellipse cx="-5" cy="5" rx="10" ry="12"/><ellipse cx="20" cy="35" rx="18" ry="22"/>
  </g>
  <g fill="#ffffff" opacity="0.06" transform="translate(900,100) scale(0.6)">
    <ellipse cx="20" cy="0" rx="12" ry="14"/><ellipse cx="45" cy="5" rx="10" ry="12"/><ellipse cx="-5" cy="5" rx="10" ry="12"/><ellipse cx="20" cy="35" rx="18" ry="22"/>
  </g>
  <g fill="#ffffff" opacity="0.07" transform="translate(1050,450) scale(0.5)">
    <ellipse cx="20" cy="0" rx="12" ry="14"/><ellipse cx="45" cy="5" rx="10" ry="12"/><ellipse cx="-5" cy="5" rx="10" ry="12"/><ellipse cx="20" cy="35" rx="18" ry="22"/>
  </g>
  <g fill="#ffffff" opacity="0.05" transform="translate(200,480) scale(0.7)">
    <ellipse cx="20" cy="0" rx="12" ry="14"/><ellipse cx="45" cy="5" rx="10" ry="12"/><ellipse cx="-5" cy="5" rx="10" ry="12"/><ellipse cx="20" cy="35" rx="18" ry="22"/>
  </g>
  <!-- Logo text -->
  <text x="600" y="260" text-anchor="middle" font-family="Georgia, serif" font-size="72" font-weight="bold" fill="#ffffff" letter-spacing="3">🐾 Dog &amp; Trail</text>
  <text x="600" y="340" text-anchor="middle" font-family="Georgia, serif" font-size="30" fill="#e8a849" letter-spacing="5">ADVENTURE GEAR FOR DOGS &amp; THEIR HUMANS</text>
  <line x1="400" y1="370" x2="800" y2="370" stroke="#e8a849" stroke-width="2" opacity="0.6"/>
  <text x="600" y="420" text-anchor="middle" font-family="Georgia, serif" font-size="24" fill="#d4c5a0" letter-spacing="2">dogandtrail.com</text>
  <!-- Bottom bar -->
  <rect x="0" y="600" width="1200" height="30" fill="#e8a849" opacity="0.8"/>
</svg>